<?xml version="1.0" encoding="UTF-8"?>
<!DOCTYPE svg PUBLIC "-//W3C//DTD SVG 1.1//EN" "http://www.w3.org/Graphics/SVG/1.1/DTD/svg11.dtd">
<!-- Creator: CorelDRAW X7 -->
<svg xmlns="http://www.w3.org/2000/svg" xml:space="preserve" width="132.292mm" height="132.292mm" version="1.1" style="shape-rendering:geometricPrecision; text-rendering:geometricPrecision; image-rendering:optimizeQuality; fill-rule:evenodd; clip-rule:evenodd"
viewBox="0 0 13229 13229"
 xmlns:xlink="http://www.w3.org/1999/xlink">
 <defs>
  <style type="text/css">
   <![CDATA[
    .str0 {stroke:white;stroke-width:20}
    .fil1 {fill:none}
    .fil4 {fill:#003CFF}
    .fil3 {fill:#87D127}
    .fil2 {fill:red}
    .fil5 {fill:white}
    .fil6 {fill:white}
    .fil0 {fill:white;fill-rule:nonzero}
   ]]>
  </style>
 </defs>
 <g id="Capa_x0020_1" visibility="hidden">
  <metadata id="CorelCorpID_0Corel-Layer"/>
  <g id="_988743744">
   <path class="fil0" d="M1263 7613c-473,446 -955,879 -1413,1341 -545,557 -1080,1136 -1296,1903 -78,352 -61,613 85,945 198,388 468,620 822,864 311,199 569,309 938,351 323,26 561,-15 864,-129 607,-259 1008,-640 1431,-1136 378,-461 666,-901 952,-1421 180,-321 260,-722 479,-609 113,-7 -292,248 -493,601 -299,510 -594,940 -978,1393 -424,477 -824,842 -1424,1085 -287,102 -513,136 -818,107 -242,-32 -418,-92 -635,-202 219,104 396,159 637,183 302,22 521,-18 802,-126 581,-254 966,-628 1369,-1106 23,-17 162,-203 189,-239 -63,79 -129,157 -195,233 -412,466 -799,815 -1383,1056 -272,96 -484,128 -772,101 -200,-26 -349,-73 -531,-157 185,75 334,114 534,129 282,14 486,-28 746,-134 551,-256 917,-627 1294,-1092 354,-452 623,-885 884,-1394 59,-108 116,-216 171,-325 -57,108 -115,215 -175,322 -274,500 -551,922 -912,1368 -379,448 -745,805 -1290,1044 -186,73 -336,108 -537,118 200,-17 347,-58 530,-136 528,-255 880,-623 1240,-1076 343,-448 605,-878 856,-1383 100,-187 195,-373 280,-567 -91,190 -191,376 -293,559 -269,492 -540,907 -895,1346 -360,426 -714,775 -1231,1004 -224,87 -398,121 -639,106 -284,-28 -484,-115 -723,-266 -273,-185 -506,-371 -665,-664 -104,-224 -115,-394 -65,-634 176,-672 686,-1216 1154,-1706 380,-395 774,-768 1163,-1154 258,-241 511,-482 760,-732 294,-298 553,-580 798,-921 207,-297 356,-557 433,-915 122,-589 263,-1069 537,-1606 219,-396 429,-680 780,-967 302,-227 558,-348 927,-425 355,-61 630,-47 981,32 720,195 1220,541 1694,1113 230,299 373,557 495,914 113,365 147,656 111,1038 51,-373 10,-682 -89,-1045 -115,-362 -256,-627 -481,-934 -470,-596 -976,-955 -1708,-1171 -363,-90 -649,-109 -1020,-53 -276,49 -479,122 -725,257 244,-142 446,-220 721,-277 375,-66 665,-54 1036,28 714,187 1211,514 1702,1061 -462,-570 -987,-895 -1688,-1114 -378,-94 -676,-113 -1063,-55 -255,46 -448,111 -681,227 229,-126 421,-199 676,-256 392,-75 697,-67 1087,13 793,197 1346,563 1877,1180 261,326 425,610 568,1003 67,198 108,371 136,578 -22,-205 -64,-383 -125,-581 -134,-398 -296,-687 -551,-1021 -525,-640 -1083,-1017 -1884,-1237 -334,-76 -599,-97 -941,-64 342,-42 610,-28 947,40 822,198 1395,572 1949,1207 274,338 445,631 596,1040 109,319 158,579 171,916 1,-331 -52,-605 -147,-923 -140,-416 -308,-718 -575,-1067 -547,-667 -1127,-1060 -1963,-1288 -423,-97 -756,-111 -1185,-38 -451,93 -766,240 -1134,518 -408,333 -653,659 -905,1120 -295,584 -446,1100 -572,1740 -55,285 -185,509 -345,746 -225,324 -466,595 -736,881 -172,181 -346,358 -521,535z"/>
  </g>
  <path class="fil1" d="M8766 5638c372,-2764 -4441,-5404 -5590,-119 -480,2210 -6868,4887 -3679,7095 2475,1714 4571,-3012 4556,-2903"/>
  <ellipse class="fil2" transform="matrix(1.97159 -0.13456 0.13456 1.97159 11126.2 4304.39)" rx="609" ry="529"/>
  <ellipse class="fil3" transform="matrix(1.59748 -0.109027 0.109027 1.59748 7825.89 870.281)" rx="609" ry="529"/>
  <ellipse class="fil4" transform="matrix(1.59748 -0.109027 0.109027 1.59748 9819.55 2257.3)" rx="609" ry="529"/>
  <ellipse class="fil5 str0" transform="matrix(1.27621 -0.0871002 0.0871002 1.27621 5495.97 888.806)" rx="609" ry="529"/>
  <polygon class="fil0" points="4699,8575 4699,6859 4058,6859 4058,6630 5598,6630 5598,6859 4957,6859 4957,8575 "/>
  <path id="1" class="fil0" d="M5730 8575l0 -1409 215 0 0 216c54,-100 105,-167 152,-198 46,-32 98,-48 153,-48 81,0 163,25 246,75l-85 221c-58,-33 -116,-49 -174,-49 -52,0 -99,16 -140,47 -41,31 -70,75 -88,130 -27,85 -40,178 -40,279l0 736 -239 0z"/>
  <path id="2" class="fil0" d="M7599 8119l247 33c-38,143 -110,255 -215,334 -105,79 -239,119 -403,119 -205,0 -368,-63 -489,-190 -120,-126 -180,-304 -180,-533 0,-236 60,-420 182,-550 122,-131 280,-196 474,-196 188,0 341,64 460,192 120,128 179,308 179,540 0,14 0,36 -1,64l-1050 0c9,154 53,273 131,355 79,82 177,123 294,123 88,0 162,-23 224,-70 62,-46 111,-120 147,-221zm-782 -383l785 0c-11,-119 -41,-207 -90,-267 -76,-91 -175,-138 -296,-138 -109,0 -201,37 -276,110 -74,74 -115,172 -123,295z"/>
  <path id="3" class="fil0" d="M8053 8154l236 -38c13,95 51,167 111,218 61,50 146,76 255,76 110,0 191,-22 245,-67 53,-45 79,-97 79,-157 0,-54 -24,-97 -71,-128 -34,-21 -115,-48 -245,-81 -174,-44 -295,-82 -363,-114 -68,-32 -119,-77 -154,-134 -35,-56 -52,-119 -52,-188 0,-63 14,-121 43,-174 29,-54 68,-98 117,-133 37,-28 88,-51 152,-70 64,-19 132,-28 206,-28 110,0 207,16 290,48 84,31 146,75 186,129 39,55 67,128 81,219l-233 33c-11,-73 -41,-131 -92,-172 -51,-41 -122,-62 -215,-62 -109,0 -188,18 -234,55 -47,36 -70,78 -70,127 0,31 9,59 29,84 19,25 49,46 91,63 24,9 94,29 211,61 168,45 286,82 353,111 67,28 119,70 157,125 39,54 58,122 58,204 0,79 -23,154 -70,224 -47,70 -114,124 -201,163 -88,38 -187,57 -297,57 -183,0 -323,-38 -419,-113 -96,-76 -157,-189 -184,-338z"/>
  <path id="4" class="fil0" d="M9536 8575l0 -1945 735 0c129,0 227,7 296,19 95,16 175,46 240,91 65,44 117,107 156,187 40,80 59,168 59,265 0,165 -52,305 -158,419 -105,114 -296,171 -571,171l-499 0 0 793 -258 0zm258 -1021l503 0c166,0 284,-31 354,-93 70,-62 105,-149 105,-261 0,-81 -21,-151 -62,-209 -41,-58 -95,-97 -162,-115 -44,-11 -124,-17 -240,-17l-498 0 0 695z"/>
  <path id="5" class="fil0" d="M11318 6902l0 -272 239 0 0 272 -239 0zm0 1673l0 -1409 239 0 0 1409 -239 0z"/>
  <path id="6" class="fil0" d="M12883 8119l247 33c-38,143 -110,255 -215,334 -105,79 -239,119 -403,119 -205,0 -368,-63 -488,-190 -121,-126 -181,-304 -181,-533 0,-236 61,-420 182,-550 122,-131 280,-196 474,-196 188,0 342,64 461,192 119,128 179,308 179,540 0,14 -1,36 -2,64l-1050 0c9,154 53,273 132,355 78,82 176,123 293,123 88,0 163,-23 224,-70 62,-46 111,-120 147,-221zm-782 -383l785 0c-10,-119 -41,-207 -90,-267 -76,-91 -174,-138 -295,-138 -110,0 -202,37 -276,110 -75,74 -116,172 -124,295z"/>
  <path id="7" class="fil0" d="M13337 8154l237 -38c13,95 50,167 111,218 60,50 145,76 254,76 110,0 192,-22 245,-67 53,-45 80,-97 80,-157 0,-54 -24,-97 -72,-128 -33,-21 -115,-48 -244,-81 -175,-44 -296,-82 -364,-114 -67,-32 -119,-77 -153,-134 -35,-56 -53,-119 -53,-188 0,-63 15,-121 43,-174 29,-54 68,-98 117,-133 37,-28 88,-51 152,-70 64,-19 133,-28 206,-28 110,0 207,16 291,48 83,31 145,75 185,129 39,55 67,128 82,219l-234 33c-10,-73 -41,-131 -92,-172 -50,-41 -122,-62 -215,-62 -109,0 -187,18 -234,55 -46,36 -70,78 -70,127 0,31 9,59 29,84 19,25 50,46 91,63 24,9 94,29 211,61 168,45 286,82 353,111 67,28 120,70 158,125 38,54 57,122 57,204 0,79 -23,154 -70,224 -46,70 -113,124 -201,163 -87,38 -187,57 -297,57 -183,0 -323,-38 -419,-113 -96,-76 -157,-189 -184,-338z"/>
 </g>
 <g id="Capa_x0020_2">
  <metadata id="CorelCorpID_1Corel-Layer"/>
  <rect class="fil6" x="622" y="9379" width="11800" height="635"/>
  <rect class="fil6" x="622" y="3479" width="11800" height="635"/>
  <rect class="fil6" x="622" y="6496" width="11800" height="635"/>
 </g>
</svg>
