<?xml version="1.0" encoding="UTF-8"?>
<!DOCTYPE svg PUBLIC "-//W3C//DTD SVG 1.1//EN" "http://www.w3.org/Graphics/SVG/1.1/DTD/svg11.dtd">
<!-- Creator: CorelDRAW X7 -->
<svg xmlns="http://www.w3.org/2000/svg" xml:space="preserve" width="215.9mm" height="279.4mm" version="1.1" style="shape-rendering:geometricPrecision; text-rendering:geometricPrecision; image-rendering:optimizeQuality; fill-rule:evenodd; clip-rule:evenodd"
viewBox="0 0 21590 27940"
 xmlns:xlink="http://www.w3.org/1999/xlink">
 <defs>
  <style type="text/css">
   <![CDATA[
    .str0 {stroke:#FAF6E6;stroke-width:99.99;stroke-opacity:0.160784}
    .str1 {stroke:#FAF6E6;stroke-width:50;stroke-opacity:0.580392}
    .fil1 {fill:none}
    .fil2 {fill:none}
    .fil3 {fill:none}
    .fil0 {fill:#FEFEFE}
   ]]>
  </style>
 </defs>
 <g id="Capa_x0020_1">
  <metadata id="CorelCorpID_0Corel-Layer"/>
  <g id="_731632512">
   <g>
    <path class="fil0" d="M6401 21805c13,-2146 339,-4341 -235,-6426 -201,-740 -235,-2142 -283,-2943 -79,-1367 -135,-2734 -205,-4105l13 0c-109,-305 396,-440 618,-148 401,514 397,3069 645,3683 43,-91 61,-78 100,-335 135,-923 -74,-2808 -70,-3857 0,-253 -13,-1420 505,-1102 422,261 379,758 405,1219 26,549 135,3391 370,3857 475,-614 -113,-3735 205,-4035 156,-153 448,65 548,243 327,571 166,2168 222,2900 61,840 -30,1711 61,2516 4,39 13,126 31,205 309,-584 174,-2699 731,-2334 509,331 287,1916 170,2421 -187,844 -414,1341 -897,2011 -248,344 -427,623 -697,962 -909,1141 -644,3766 -748,5237l-270 -30c95,-1372 -44,-2930 283,-4262 204,-840 387,-897 827,-1524 191,-270 470,-649 640,-918 470,-745 1036,-2678 592,-3566 -179,514 -100,2042 -549,2347 -452,304 -422,-1167 -422,-1306 -9,-453 31,-1102 -4,-1524 -35,-453 -35,-758 -31,-1210 0,-340 83,-1711 -309,-1894 -4,43 -9,87 -9,122 -34,1001 196,2207 40,3226 -35,209 -227,975 -558,687 -378,-330 -457,-3304 -487,-3918 -18,-274 -52,-622 -61,-879 -4,-70 -139,-257 -227,-296 -278,396 196,4044 -87,5037 -74,252 -283,540 -474,265 -305,-431 -366,-2747 -570,-3500 -70,-243 -114,-344 -262,-291 0,30 0,69 5,178 65,1302 126,2599 196,3901 43,766 82,2163 274,2869 583,2133 257,4336 248,6517l-274 0 0 0z"/>
   </g>
   <path class="fil1" d="M6536 21805c0,-2286 374,-4454 -301,-6678 -152,-514 -413,-6857 -431,-6879 575,-396 614,797 723,1485 26,165 218,3278 605,2081 375,-1154 -557,-6504 549,-4811 130,200 135,5960 753,4624 396,-862 -109,-3905 144,-3905 774,0 404,2268 544,3247 48,322 -148,3731 392,2442 222,-531 191,-2725 579,-2011 387,710 43,2886 -758,3936 -292,383 -518,792 -792,1092 -958,1067 -662,3997 -788,5333"/>
   <path class="fil2 str0" d="M6344 21613c1441,-1772 3096,-3221 3979,-5372 201,-496 4001,-5585 4005,-5611 693,56 -30,1005 -378,1610 -83,144 -1898,2678 -845,1994 1019,-662 3670,-5394 3461,-3387 -26,240 -3657,4711 -2333,4062 853,-418 2381,-3100 2577,-2939 601,488 -1115,2016 -1624,2865 -170,279 -2473,2804 -1236,2142 505,-270 1863,-1994 1715,-1197 -148,796 -1785,2272 -3069,2577 -470,113 -901,287 -1306,353 -1415,217 -3030,2681 -3971,3639"/>
   <path class="fil3 str1" d="M7689 21287c754,-2160 1820,-4079 1920,-6404 22,-536 1868,-6609 1864,-6635 670,-183 313,954 191,1642 -30,161 -879,3164 -117,2163 735,-971 1623,-6321 2107,-4362 56,231 -1842,5673 -819,4610 662,-679 1189,-3722 1424,-3639 731,257 -362,2277 -553,3247 -65,323 -1371,3479 -435,2438 383,-431 1079,-2512 1205,-1711 131,797 -909,2743 -2011,3466 -405,265 -753,579 -1110,775 -1254,688 -1942,3548 -2499,4771"/>
  </g>
 </g>
</svg>
