<?xml version="1.0" encoding="UTF-8"?>
<!DOCTYPE svg PUBLIC "-//W3C//DTD SVG 1.1//EN" "http://www.w3.org/Graphics/SVG/1.1/DTD/svg11.dtd">
<!-- Creator: CorelDRAW X7 -->
<svg xmlns="http://www.w3.org/2000/svg" xml:space="preserve" width="169.862mm" height="142.346mm" version="1.1" style="shape-rendering:geometricPrecision; text-rendering:geometricPrecision; image-rendering:optimizeQuality; fill-rule:evenodd; clip-rule:evenodd"
viewBox="0 0 16986 14235"
 xmlns:xlink="http://www.w3.org/1999/xlink">
 <defs>
  <style type="text/css">
   <![CDATA[
    .str0 {stroke:white;stroke-width:20}
    .fil1 {fill:none}
    .fil4 {fill:#003CFF}
    .fil3 {fill:#87D127}
    .fil6 {fill:#FAF6E6}
    .fil2 {fill:red}
    .fil5 {fill:white}
    .fil0 {fill:white;fill-rule:nonzero}
   ]]>
  </style>
 </defs>
 <g id="Capa_x0020_1" visibility="hidden">
  <metadata id="CorelCorpID_0Corel-Layer"/>
  <g id="_933143088">
   <path class="fil0" d="M3142 8116c-473,446 -956,879 -1413,1341 -545,557 -1081,1136 -1296,1903 -78,352 -62,613 85,945 198,387 468,620 822,863 311,200 569,310 938,352 323,25 561,-15 863,-129 608,-260 1009,-641 1432,-1137 377,-460 665,-901 952,-1420 179,-321 259,-722 479,-610 112,-6 -292,249 -494,601 -299,511 -593,941 -978,1394 -424,477 -823,842 -1423,1085 -288,102 -513,136 -818,106 -242,-31 -418,-91 -635,-202 218,105 396,160 637,184 301,21 521,-19 802,-127 581,-254 966,-627 1369,-1106 22,-16 161,-202 188,-238 -62,79 -128,157 -194,233 -412,466 -799,814 -1384,1056 -271,96 -484,128 -771,100 -200,-26 -349,-72 -532,-157 185,76 335,115 535,130 281,14 486,-28 746,-135 550,-255 916,-626 1294,-1092 353,-451 623,-885 884,-1394 59,-107 115,-215 170,-325 -57,109 -114,216 -175,323 -273,500 -551,922 -911,1368 -379,448 -746,804 -1290,1044 -187,72 -337,108 -537,117 199,-16 347,-57 530,-136 528,-254 880,-622 1239,-1075 344,-449 605,-879 857,-1384 100,-186 194,-372 279,-566 -90,189 -191,375 -293,559 -269,492 -540,907 -895,1346 -360,426 -713,774 -1230,1004 -224,87 -399,121 -640,105 -283,-28 -483,-115 -723,-266 -272,-184 -506,-370 -664,-664 -104,-224 -115,-393 -66,-633 177,-672 687,-1217 1155,-1707 380,-394 774,-768 1162,-1153 258,-241 512,-482 761,-732 293,-298 553,-581 798,-921 207,-297 355,-557 433,-915 121,-589 262,-1069 536,-1607 219,-395 429,-679 781,-966 301,-227 557,-348 927,-425 355,-61 630,-47 980,32 721,194 1221,541 1695,1113 229,298 373,557 495,913 113,366 147,657 110,1039 51,-373 11,-682 -89,-1045 -114,-363 -255,-627 -480,-934 -470,-596 -977,-955 -1708,-1171 -364,-90 -650,-110 -1021,-54 -275,50 -479,123 -724,257 243,-141 445,-219 721,-276 375,-67 665,-54 1036,28 714,187 1211,514 1702,1061 -462,-570 -987,-895 -1688,-1114 -379,-94 -676,-113 -1063,-56 -256,47 -449,111 -681,228 229,-126 421,-200 676,-257 391,-75 697,-66 1086,14 794,196 1346,563 1877,1179 262,327 426,610 568,1004 67,198 108,371 137,578 -22,-205 -64,-384 -125,-581 -134,-398 -296,-687 -552,-1022 -525,-639 -1082,-1016 -1884,-1236 -333,-77 -599,-97 -940,-64 342,-43 609,-29 947,39 822,199 1394,573 1948,1208 274,338 446,631 597,1040 108,318 158,579 170,916 1,-331 -51,-605 -147,-923 -140,-416 -308,-718 -574,-1067 -548,-667 -1128,-1060 -1964,-1289 -423,-96 -756,-111 -1184,-38 -452,94 -767,241 -1135,519 -408,333 -652,659 -905,1119 -295,585 -445,1101 -572,1741 -54,285 -184,509 -345,746 -224,324 -466,595 -736,880 -171,182 -345,359 -520,536z"/>
  </g>
  <path class="fil1" d="M10645 6140c372,-2764 -4441,-5404 -5590,-118 -481,2210 -6868,4887 -3680,7095 2475,1713 4572,-3013 4556,-2903"/>
  <ellipse class="fil2" transform="matrix(1.97159 -0.13456 0.13456 1.97159 13004.8 4807.1)" rx="609" ry="529"/>
  <ellipse class="fil3" transform="matrix(1.59748 -0.109027 0.109027 1.59748 9704.43 1372.99)" rx="609" ry="529"/>
  <ellipse class="fil4" transform="matrix(1.59748 -0.109027 0.109027 1.59748 11698.1 2760.01)" rx="609" ry="529"/>
  <ellipse class="fil5 str0" transform="matrix(1.27621 -0.0871002 0.0871002 1.27621 7374.51 1391.52)" rx="609" ry="529"/>
  <polygon class="fil0" points="6577,9078 6577,7361 5936,7361 5936,7133 7476,7133 7476,7361 6835,7361 6835,9078 "/>
  <path id="1" class="fil0" d="M7609 9078l0 -1410 214 0 0 216c55,-100 106,-166 152,-198 47,-32 98,-48 154,-48 80,0 162,26 246,76l-85 221c-58,-33 -116,-49 -174,-49 -52,0 -99,15 -140,47 -41,31 -71,74 -89,130 -26,85 -39,178 -39,279l0 736 -239 0z"/>
  <path id="2" class="fil0" d="M9477 8622l248 32c-39,144 -111,256 -216,335 -105,79 -239,119 -402,119 -206,0 -369,-63 -489,-190 -121,-126 -181,-304 -181,-533 0,-236 61,-420 183,-551 121,-130 279,-196 474,-196 187,0 341,64 460,192 119,129 179,309 179,541 0,14 -1,35 -2,63l-1049 0c9,155 52,273 131,355 78,82 176,123 294,123 87,0 162,-23 223,-69 62,-46 111,-120 147,-221zm-782 -383l785 0c-10,-119 -41,-208 -90,-267 -75,-92 -174,-138 -295,-138 -110,0 -202,37 -276,110 -74,73 -116,172 -124,295z"/>
  <path id="3" class="fil0" d="M9932 8657l236 -38c13,95 50,167 111,218 60,50 146,75 254,75 110,0 192,-22 245,-67 53,-44 80,-96 80,-157 0,-54 -24,-96 -72,-127 -33,-21 -115,-48 -244,-81 -175,-44 -296,-82 -364,-114 -67,-33 -118,-77 -153,-134 -35,-57 -53,-120 -53,-188 0,-63 15,-121 43,-175 29,-53 68,-97 118,-133 37,-27 87,-50 151,-69 65,-19 133,-29 206,-29 111,0 208,16 291,48 84,32 145,76 185,130 39,55 67,128 82,219l-234 33c-10,-74 -41,-131 -91,-172 -51,-42 -123,-62 -216,-62 -109,0 -187,18 -234,54 -46,37 -70,79 -70,128 0,30 10,58 29,83 20,26 50,47 92,64 24,9 93,29 210,61 169,45 286,82 353,110 67,29 120,71 158,125 38,55 57,123 57,204 0,80 -23,154 -69,225 -47,70 -114,124 -201,163 -88,38 -187,57 -298,57 -183,0 -323,-38 -419,-114 -96,-76 -157,-188 -183,-337z"/>
  <path id="4" class="fil0" d="M11415 9078l0 -1945 734 0c129,0 228,7 296,19 96,16 176,46 241,90 64,45 116,108 156,188 39,80 59,168 59,265 0,164 -53,304 -158,418 -105,115 -296,172 -571,172l-499 0 0 793 -258 0zm258 -1021l502 0c167,0 285,-31 355,-93 70,-62 104,-149 104,-262 0,-81 -20,-150 -61,-208 -41,-58 -96,-97 -163,-115 -43,-12 -123,-18 -240,-18l-497 0 0 696z"/>
  <path id="5" class="fil0" d="M13197 7405l0 -272 239 0 0 272 -239 0zm0 1673l0 -1410 239 0 0 1410 -239 0z"/>
  <path id="6" class="fil0" d="M14762 8622l247 32c-39,144 -110,256 -216,335 -105,79 -239,119 -402,119 -206,0 -369,-63 -489,-190 -120,-126 -181,-304 -181,-533 0,-236 61,-420 183,-551 122,-130 280,-196 474,-196 188,0 341,64 460,192 119,129 179,309 179,541 0,14 0,35 -1,63l-1050 0c9,155 52,273 131,355 78,82 177,123 294,123 87,0 162,-23 224,-69 62,-46 111,-120 147,-221zm-783 -383l785 0c-10,-119 -40,-208 -90,-267 -75,-92 -174,-138 -295,-138 -109,0 -201,37 -276,110 -74,73 -115,172 -124,295z"/>
  <path id="7" class="fil0" d="M15216 8657l236 -38c13,95 50,167 111,218 61,50 146,75 255,75 110,0 191,-22 244,-67 53,-44 80,-96 80,-157 0,-54 -24,-96 -71,-127 -34,-21 -115,-48 -245,-81 -175,-44 -295,-82 -363,-114 -68,-33 -119,-77 -154,-134 -35,-57 -52,-120 -52,-188 0,-63 14,-121 43,-175 29,-53 68,-97 117,-133 37,-27 88,-50 152,-69 64,-19 132,-29 206,-29 110,0 207,16 290,48 84,32 146,76 185,130 40,55 67,128 82,219l-233 33c-11,-74 -41,-131 -92,-172 -51,-42 -122,-62 -215,-62 -109,0 -188,18 -234,54 -47,37 -70,79 -70,128 0,30 9,58 28,83 20,26 50,47 92,64 24,9 94,29 210,61 169,45 287,82 354,110 67,29 119,71 157,125 39,55 58,123 58,204 0,80 -23,154 -70,225 -47,70 -114,124 -201,163 -88,38 -187,57 -298,57 -182,0 -322,-38 -418,-114 -96,-76 -157,-188 -184,-337z"/>
 </g>
 <g id="Capa_x0020_2">
  <metadata id="CorelCorpID_1Corel-Layer"/>
  <g id="Grupo_x0020_de_x0020_control_x0020_de_x0020_5_x0020_objetos_x0020_">
   <path class="fil6" d="M10200 4340c1655,0 2996,1214 2996,2711 0,1498 -1341,2712 -2996,2712 -1654,0 -2995,-1214 -2995,-2712 0,-1497 1341,-2711 2995,-2711z"/>
   <g>
    <path class="fil6" d="M14562 10691c-3724,1568 -6903,1168 -9443,-2148 -858,-1119 -1139,-1027 -2085,-1821 1067,197 1778,700 2506,1484 2566,2763 5192,3038 8541,1447 287,-133 627,-8 760,279 132,286 8,626 -279,759z"/>
   </g>
   <path class="fil1" d="M14322 10172c-3457,1602 -6610,1179 -8993,-1797 -716,-894 -1383,-1230 -2295,-1653"/>
   <g>
    <path class="fil6" d="M13147 6854c403,23 1219,108 1787,99 -1460,-2239 -2887,-4432 -6080,-3550 -993,274 -2013,890 -2995,1320 -709,310 -4805,2074 -5274,1373 -29,-45 -21,-41 -18,-94 135,77 165,97 344,82 1426,-123 4973,-2047 6293,-2772 2544,-1397 4877,-1267 6918,853 446,464 2056,2549 2136,2986 228,1236 -2487,868 -3111,847 -316,0 -572,-256 -572,-572 0,-316 256,-572 572,-572z"/>
   </g>
   <path class="fil1" d="M13147 7426c422,0 2963,299 2538,-296 -1252,-1755 -3409,-6432 -8820,-3237 -454,268 -5990,2949 -6298,2109"/>
  </g>
 </g>
</svg>
