<?xml version="1.0" encoding="utf-8"?>
<!-- Generator: Adobe Illustrator 16.0.0, SVG Export Plug-In . SVG Version: 6.00 Build 0)  -->
<!DOCTYPE svg PUBLIC "-//W3C//DTD SVG 1.1//EN" "http://www.w3.org/Graphics/SVG/1.1/DTD/svg11.dtd">
<svg version="1.1" id="Capa_1" xmlns="http://www.w3.org/2000/svg" xmlns:xlink="http://www.w3.org/1999/xlink" x="0px" y="0px"
	 width="134.329px" height="130.074px" viewBox="0 0 134.329 130.074" enable-background="new 0 0 134.329 130.074"
	 xml:space="preserve">
<g>
	<circle fill="#666666" cx="69.006" cy="66.794" r="57.844"/>
	<path fill="#FFFFFF" d="M59.941,84.251c0-5.412-0.021-10.826,0.02-16.238c0.008-0.912-0.25-1.198-1.163-1.161
		c-1.687,0.067-3.379-0.007-5.067,0.032c-0.684,0.018-0.936-0.174-0.929-0.896c0.034-3.377,0.031-6.757,0.004-10.135
		c-0.006-0.65,0.189-0.863,0.847-0.85c1.727,0.04,3.457-0.048,5.181,0.037c0.999,0.049,1.206-0.306,1.186-1.233
		c-0.061-2.569-0.061-5.145-0.004-7.715c0.068-3.14,0.911-6.071,2.781-8.624c2.367-3.233,5.731-4.712,9.614-4.885
		c3.986-0.177,7.982-0.079,11.976-0.122c0.557-0.006,0.723,0.193,0.72,0.734c-0.018,3.416-0.021,6.833,0.003,10.25
		c0.005,0.607-0.192,0.793-0.79,0.784c-1.92-0.03-3.84-0.016-5.759-0.011c-2.556,0.008-4.084,1.322-4.244,3.852
		c-0.129,2.027-0.035,4.067-0.082,6.102c-0.019,0.725,0.413,0.675,0.894,0.674c2.916-0.004,5.836,0.029,8.752-0.021
		c0.856-0.015,1.14,0.183,1.041,1.083c-0.366,3.395-0.683,6.796-0.974,10.198c-0.065,0.769-0.417,0.914-1.106,0.903
		c-2.301-0.036-4.604-0.024-6.907-0.01c-1.654,0.01-1.494-0.244-1.494,1.443c-0.008,10.596-0.021,21.191,0.022,31.787
		c0.006,1.119-0.28,1.396-1.389,1.377c-3.953-0.072-7.908-0.076-11.862,0.002c-1.114,0.021-1.297-0.355-1.288-1.35
		C59.962,94.925,59.941,89.589,59.941,84.251z"/>
</g>
</svg>
