<?xml version="1.0" encoding="utf-8"?>
<!-- Generator: Adobe Illustrator 16.0.0, SVG Export Plug-In . SVG Version: 6.00 Build 0)  -->
<!DOCTYPE svg PUBLIC "-//W3C//DTD SVG 1.1//EN" "http://www.w3.org/Graphics/SVG/1.1/DTD/svg11.dtd">
<svg version="1.1" id="Capa_1" xmlns="http://www.w3.org/2000/svg" xmlns:xlink="http://www.w3.org/1999/xlink" x="0px" y="0px"
	 width="134.329px" height="130.073px" viewBox="0 0 134.329 130.073" enable-background="new 0 0 134.329 130.073"
	 xml:space="preserve">
<g>
	<circle fill-rule="evenodd" clip-rule="evenodd" fill="#3D5C9C" cx="69.006" cy="66.794" r="57.844"/>
	<path fill-rule="evenodd" clip-rule="evenodd" fill="#FFFFFF" d="M59.941,84.252c0-5.413-0.021-10.827,0.02-16.239
		c0.008-0.912-0.25-1.198-1.163-1.161c-1.687,0.068-3.379-0.007-5.067,0.032c-0.684,0.018-0.936-0.173-0.929-0.896
		c0.034-3.377,0.031-6.757,0.004-10.135c-0.006-0.65,0.189-0.863,0.847-0.85c1.727,0.04,3.457-0.048,5.181,0.037
		c0.999,0.049,1.206-0.306,1.186-1.233c-0.061-2.569-0.061-5.145-0.004-7.715c0.068-3.14,0.911-6.071,2.781-8.624
		c2.367-3.233,5.731-4.712,9.613-4.885c3.987-0.177,7.983-0.079,11.976-0.122c0.557-0.006,0.723,0.193,0.72,0.734
		c-0.018,3.416-0.021,6.833,0.003,10.25c0.005,0.607-0.193,0.793-0.79,0.784c-1.92-0.03-3.84-0.016-5.759-0.011
		c-2.555,0.008-4.084,1.322-4.244,3.852c-0.129,2.027-0.035,4.067-0.082,6.102c-0.018,0.725,0.413,0.675,0.893,0.674
		c2.917-0.004,5.836,0.029,8.753-0.021c0.856-0.015,1.139,0.183,1.041,1.083c-0.367,3.395-0.683,6.796-0.974,10.198
		c-0.066,0.768-0.417,0.914-1.106,0.903c-2.302-0.036-4.605-0.024-6.908-0.01c-1.654,0.01-1.494-0.243-1.494,1.444
		c-0.008,10.596-0.021,21.191,0.023,31.787c0.005,1.119-0.281,1.397-1.389,1.377c-3.953-0.072-7.908-0.076-11.862,0.002
		c-1.114,0.022-1.297-0.355-1.288-1.35C59.962,94.925,59.941,89.589,59.941,84.252z"/>
</g>
</svg>
