<?xml version="1.0" encoding="utf-8"?>
<!-- Generator: Adobe Illustrator 16.0.0, SVG Export Plug-In . SVG Version: 6.00 Build 0)  -->
<!DOCTYPE svg PUBLIC "-//W3C//DTD SVG 1.1//EN" "http://www.w3.org/Graphics/SVG/1.1/DTD/svg11.dtd">
<svg version="1.1" id="Capa_1" xmlns="http://www.w3.org/2000/svg" xmlns:xlink="http://www.w3.org/1999/xlink" x="0px" y="0px"
	 width="134.329px" height="130.074px" viewBox="0 0 134.329 130.074" enable-background="new 0 0 134.329 130.074"
	 xml:space="preserve">
<g>
	<circle fill="#666666" cx="69.28" cy="66.979" r="57.853"/>
	<g>
		<path fill="#FFFFFF" d="M98.232,48.583c1.61,0,3.226,0.04,4.833-0.017c0.779-0.028,0.96,0.247,0.961,0.984
			c0.008,2.535,0.036,2.535-2.509,2.535c-2.763,0-5.524,0.021-8.287-0.015c-0.744-0.01-0.989,0.193-0.979,0.966
			c0.043,3.262-0.002,6.523,0.033,9.785c0.008,0.746-0.197,0.975-0.965,0.975c-2.564,0.001-2.564,0.035-2.564-2.581
			c0-2.724-0.024-5.448,0.013-8.172c0.011-0.752-0.208-0.984-0.974-0.976c-3.223,0.042-6.446-0.015-9.668,0.04
			c-0.887,0.016-1.084-0.26-1.07-1.1c0.035-2.423-0.002-2.423,2.376-2.423c2.687,0,5.373-0.042,8.057,0.021
			c0.966,0.023,1.319-0.158,1.29-1.231c-0.085-3.183-0.013-6.369-0.046-9.553c-0.008-0.737,0.185-0.985,0.964-0.986
			c2.577-0.002,2.577-0.036,2.577,2.582c0,2.724,0.031,5.448-0.022,8.171c-0.016,0.823,0.236,1.042,1.033,1.013
			C94.93,48.542,96.583,48.582,98.232,48.583z"/>
		<path fill="#FFFFFF" d="M69.027,73.477c-1.408-1.588-3.06-2.905-4.697-4.24c-0.922-0.751-1.859-1.491-2.596-2.438
			c-1.032-1.322-1.015-2.436,0.044-3.75c0.656-0.814,1.447-1.494,2.278-2.107c4.153-3.063,5.937-7.104,5.532-12.283
			c-0.289-3.701-0.912-7.052-4.941-8.79c0.887-0.648,1.666-0.656,2.408-0.773c1.474-0.236,2.988-0.271,4.375-0.917
			c0.462-0.214,1.012-0.523,0.879-1.067c-0.123-0.507-0.734-0.242-1.117-0.244c-4.761-0.019-9.521,0.012-14.281-0.022
			c-2.325-0.016-4.593,0.316-6.82,0.932c-8.821,2.438-13.008,9.02-11.218,17.615c0.464,2.234,1.455,4.205,3.149,5.764
			c2.528,2.331,5.63,3.153,8.965,3.395c0.782,0.057,1.853-0.393,2.272,0.22c0.379,0.555,0.17,1.56,0.107,2.356
			c-0.085,1.088,0.179,1.938,1.147,2.557c0.527,0.336,0.782,0.917,0.969,1.523c0.189,0.611,0.119,0.883-0.632,0.881
			c-1.226-0.002-2.456,0.08-3.677,0.199c-3.535,0.348-6.984,1.055-10.151,2.752c-2.702,1.447-4.778,3.461-5.642,6.506
			c-1.657,5.838,1.063,11.27,6.909,13.725c3.792,1.592,7.787,2.023,11.85,1.813c4.301-0.223,8.458-1.078,12.144-3.465
			C73.249,89.106,74.522,79.675,69.027,73.477z M50.999,59.617c-3.531-2.735-4.9-6.548-5.075-10.22c0-2.494,0.328-4.248,1.182-5.886
			c1.93-3.699,5.763-4.712,9.229-2.373c3.118,2.106,4.655,5.216,5.332,8.813c0.45,2.393,0.283,4.744-0.676,7.001
			C59.136,61.322,54.754,62.527,50.999,59.617z M64.411,88.974c-4.702,4.645-13.755,5.306-19.08,1.395
			c-4.327-3.179-4.688-8.25-0.793-11.957c2.909-2.768,6.513-3.764,10.256-3.861c3.321,0.061,6.268,0.765,8.823,2.684
			C67.772,80.354,68.098,85.33,64.411,88.974z"/>
	</g>
</g>
</svg>
