<?xml version="1.0" encoding="utf-8"?>
<!-- Generator: Adobe Illustrator 16.0.0, SVG Export Plug-In . SVG Version: 6.00 Build 0)  -->
<!DOCTYPE svg PUBLIC "-//W3C//DTD SVG 1.1//EN" "http://www.w3.org/Graphics/SVG/1.1/DTD/svg11.dtd">
<svg version="1.1" id="Capa_1" xmlns="http://www.w3.org/2000/svg" xmlns:xlink="http://www.w3.org/1999/xlink" x="0px" y="0px"
	 width="134.329px" height="130.073px" viewBox="0 0 134.329 130.073" enable-background="new 0 0 134.329 130.073"
	 xml:space="preserve">
<g>
	<circle fill-rule="evenodd" clip-rule="evenodd" fill="#527FA3" cx="69.539" cy="67.083" r="58.083"/>
	<g>
		<path fill-rule="evenodd" clip-rule="evenodd" fill="#FFFFFF" d="M69.466,96.693c-7.629,0-15.261,0.001-22.893,0
			c-4.041-0.002-6.507-2.426-6.512-6.441c-0.01-10.6,0.008-21.199-0.023-31.797c-0.002-0.971,0.198-1.33,1.264-1.316
			c4.894,0.062,9.789,0.046,14.683,0.011c0.983-0.007,1.15,0.143,0.741,1.123c-3.178,7.615,0.774,16.107,8.607,18.61
			c7.751,2.477,15.933-2.293,17.724-10.345c0.638-2.875,0.352-5.685-0.848-8.36c-0.435-0.97-0.151-1.03,0.719-1.025
			c5.01,0.029,10.021,0.037,15.031-0.006c0.879-0.007,1.104,0.262,1.103,1.108c-0.026,10.676,0.005,21.352-0.029,32.027
			c-0.013,4.033-2.509,6.411-6.558,6.413C84.806,96.694,77.137,96.693,69.466,96.693z"/>
		<path fill-rule="evenodd" clip-rule="evenodd" fill="#FFFFFF" d="M99.029,43.963c-0.068-3.91-2.541-6.255-6.476-6.257
			c-7.671-0.003-15.341-0.001-23.011-0.001c-7.747,0-15.495-0.006-23.242,0.004c-3.68,0.004-6.194,2.466-6.233,6.134
			c-0.036,3.546,0.021,7.092-0.028,10.639c-0.012,0.889,0.289,1.087,1.125,1.083c5.396-0.035,10.792-0.03,16.189-0.004
			c0.65,0.003,1.03-0.235,1.441-0.719c5.772-6.783,15.646-6.771,21.408,0.028c0.394,0.466,0.777,0.631,1.368,0.63
			c5.472-0.019,10.947-0.026,16.419,0.004c0.778,0.004,1.082-0.185,1.073-1.018C99.021,50.977,99.092,47.469,99.029,43.963z
			 M43.971,52.917c-0.67,0.003-0.848-0.252-0.841-0.884c0.026-2.688,0.004-5.376,0.016-8.066c0.005-1.149,0.706-1.851,1.776-2.587
			c0,0.905,0,1.621,0,2.337c-0.002,2.765-0.02,5.53,0.01,8.294C44.941,52.746,44.639,52.913,43.971,52.917z M47.343,52.913
			c-0.687-0.005-1.06-0.12-1.052-0.942c0.036-3.43,0.036-6.863,0-10.293c-0.008-0.862,0.444-0.879,1.088-0.905
			c0.726-0.028,0.921,0.251,0.905,0.942c-0.038,1.734-0.012,3.469-0.012,5.204c0,1.696-0.033,3.394,0.016,5.089
			C48.31,52.746,48.02,52.918,47.343,52.913z M51.752,46.843c0,1.695-0.038,3.394,0.018,5.088c0.026,0.78-0.248,0.988-0.99,0.985
			c-0.703-0.002-0.926-0.217-0.917-0.928c0.031-3.431,0.031-6.862,0-10.293c-0.009-0.711,0.214-0.924,0.917-0.928
			c0.742-0.001,1.016,0.207,0.99,0.987C51.714,43.448,51.752,45.146,51.752,46.843z M55.175,52.06
			c0.005,0.682-0.271,0.859-0.891,0.846c-0.592-0.011-1.051-0.012-1.032-0.827c0.042-1.771,0.014-3.542,0.012-5.314
			c0-1.695,0.026-3.389-0.012-5.082c-0.018-0.729,0.275-0.923,0.954-0.911c0.646,0.011,0.979,0.13,0.969,0.891
			C55.144,45.128,55.148,48.594,55.175,52.06z M95.655,48.433c-0.062,2.107-1.439,3.682-3.525,3.901
			c-1.993,0.208-4.005,0.209-5.995-0.004c-1.997-0.214-3.361-1.716-3.45-3.71c-0.051-1.191-0.048-2.388-0.003-3.581
			c0.081-2.131,1.587-3.686,3.719-3.834c0.921-0.064,1.849-0.011,2.772-0.011c0-0.004,0-0.006,0-0.011
			c0.849,0,1.697-0.034,2.542,0.007c2.288,0.105,3.881,1.728,3.941,4.007C95.685,46.276,95.687,47.356,95.655,48.433z"/>
		<path fill-rule="evenodd" clip-rule="evenodd" fill="#FFFFFF" d="M69.55,51.353c-6.87-0.008-12.453,5.554-12.438,12.392
			c0.014,6.79,5.567,12.34,12.363,12.36c6.868,0.019,12.41-5.522,12.403-12.401C81.872,56.873,76.37,51.36,69.55,51.353z
			 M69.551,73.633c-5.536-0.024-9.972-4.487-9.959-10.022c0.013-5.553,4.525-9.977,10.148-9.944
			c5.479,0.029,9.902,4.586,9.837,10.135C79.513,69.27,75.037,73.658,69.551,73.633z"/>
	</g>
</g>
</svg>
